<svg width="201" height="257" viewBox="0 0 201 257" fill="none" xmlns="http://www.w3.org/2000/svg">
<path d="M54.92 119.505C52.872 122.065 50.3973 124.07 47.496 125.521C44.68 126.972 41.6933 127.868 38.536 128.209C35.464 128.636 32.3067 128.55 29.064 127.953C25.8213 127.441 22.792 126.502 19.976 125.137C18.2693 124.284 16.6053 123.302 14.984 122.193C13.3627 120.998 11.912 119.633 10.632 118.097C9.94933 117.244 9.39467 116.348 8.968 115.409C8.54133 114.47 8.328 113.446 8.328 112.337C8.328 111.484 8.41333 110.63 8.584 109.777C8.84 108.924 9.13867 108.113 9.48 107.345C9.82133 106.492 10.248 105.553 10.76 104.529C11.3573 103.42 11.9973 102.481 12.68 101.713C13.3627 100.86 14.088 100.177 14.856 99.6649C15.7093 99.1529 16.6053 98.9822 17.544 99.1529C17.8 99.2382 18.184 99.4515 18.696 99.7929C19.208 100.134 19.72 100.518 20.232 100.945C20.8293 101.286 21.3413 101.67 21.768 102.097C22.28 102.524 22.664 102.822 22.92 102.993C24.0293 103.846 25.224 104.614 26.504 105.297C27.784 105.894 29.1067 106.321 30.472 106.577C32.776 107.089 34.952 106.748 37 105.553C38.28 104.7 38.92 103.718 38.92 102.609C38.92 101.5 38.536 100.39 37.768 99.2809C37.0853 98.0862 36.104 97.0195 34.824 96.0809C33.544 95.0569 32.264 94.2035 30.984 93.5209C28.424 92.2409 25.7787 91.0889 23.048 90.0649C20.4027 89.0409 18.056 87.5475 16.008 85.5849C14.216 83.8782 12.8933 81.8302 12.04 79.4409C11.1867 76.9662 10.6747 74.4915 10.504 72.0169C10.4187 69.4569 10.632 67.0249 11.144 64.7209C11.656 62.4169 12.3813 60.4969 13.32 58.9609C15.9653 54.9502 19.1653 52.0062 22.92 50.1289C26.6747 48.1662 30.6427 47.0995 34.824 46.9289C39.0053 46.7582 43.144 47.3555 47.24 48.7209C51.336 50.0009 55.0053 51.8355 58.248 54.2249C59.016 54.8222 59.7413 55.5475 60.424 56.4009C61.1067 57.2542 61.4907 58.1929 61.576 59.2169C61.6613 60.1555 61.5333 61.2649 61.192 62.5449C60.936 63.7395 60.552 65.0195 60.04 66.3849C59.6133 67.6649 59.0587 68.9022 58.376 70.0969C57.7787 71.2062 57.224 72.1022 56.712 72.7849C56.2853 73.3822 55.7733 73.9369 55.176 74.4489C54.5787 74.8755 53.9387 75.1742 53.256 75.3449C52.1467 75.6009 51.0373 75.3875 49.928 74.7049C49.5867 74.5342 49.032 74.1929 48.264 73.6809C47.496 73.1689 46.6853 72.6142 45.832 72.0169C44.9787 71.4195 44.168 70.8649 43.4 70.3529C42.7173 69.8409 42.248 69.4569 41.992 69.2009C39.688 67.4089 37.64 66.5982 35.848 66.7689C34.1413 66.9395 32.9893 67.6222 32.392 68.8169C31.88 70.0115 32.0933 71.5049 33.032 73.2969C34.056 75.0035 36.1893 76.5395 39.432 77.9049C41.1387 78.5875 42.8453 79.3982 44.552 80.3369C46.2587 81.2755 47.8373 82.3422 49.288 83.5369C51.9333 85.5849 54.1093 88.1449 55.816 91.2169C57.608 94.2035 58.76 97.3609 59.272 100.689C59.8693 104.017 59.8267 107.345 59.144 110.673C58.4613 113.916 57.0533 116.86 54.92 119.505Z" fill="#A855E9"/>
<path d="M75.638 148.965C75.2118 148.984 74.4872 149.017 73.4642 149.063C72.4451 149.195 71.3388 149.287 70.1454 149.341C69.041 149.477 67.9774 149.567 66.9544 149.614C65.9315 149.66 65.203 149.607 64.7691 149.456C63.7269 149.076 62.9773 148.555 62.5203 147.892C62.1562 147.396 61.8212 146.599 61.5155 145.503C61.2988 144.487 61.1189 143.342 60.976 142.068C60.8368 140.878 60.6996 139.731 60.5643 138.627C60.5143 137.518 60.4758 136.666 60.4489 136.069C59.7339 129.695 59.2321 123.311 58.9435 116.918C58.7362 110.435 58.6567 103.947 58.7052 97.4526C58.686 97.0263 58.6686 96.6427 58.6532 96.3017C58.634 95.8755 58.6574 95.4474 58.7234 95.0173L58.8125 88.4786C58.7933 88.0524 58.776 87.6688 58.7606 87.3278C58.8266 86.8977 58.8499 86.4695 58.8307 86.0433C58.7664 80.8356 58.7466 75.6685 58.7714 70.5422C58.7924 65.3306 59.2841 60.1405 60.2466 54.9718C60.3901 54.3674 60.6442 53.3736 61.0089 51.9904C61.4549 50.5181 61.8814 49.5592 62.2884 49.1137C63.021 48.3119 64.0673 47.8375 65.4274 47.6907C66.8689 47.4548 68.4053 47.4281 70.0365 47.6107C71.6639 47.7081 73.2544 47.9352 74.8081 48.2922C76.3579 48.5639 77.652 48.8471 78.6904 49.1419C80.0659 49.3361 81.3289 49.877 82.4794 50.7647C83.0993 51.2492 83.5137 51.9138 83.7226 52.7586C84.013 53.5143 84.1329 54.2777 84.0823 55.0487C84.1016 55.475 84.0064 56.2053 83.7969 57.2398C84.2038 56.7943 84.5314 56.4806 84.7794 56.2985C85.1088 56.0274 85.355 55.8028 85.5178 55.6246C86.9983 54.3618 88.5292 53.2677 90.1104 52.3421C91.773 51.3274 93.4878 50.5239 95.2549 49.9315C96.8515 49.3469 98.5487 49.0995 100.347 49.1891C102.23 49.2749 104.039 49.6203 105.775 50.2253C107.511 50.8303 109.089 51.7414 110.511 52.9585C112.014 54.0865 113.269 55.3965 114.276 56.8886C115.655 59.0473 116.745 61.4326 117.546 64.0444C118.344 66.571 118.885 69.1092 119.171 71.6589C119.685 75.4796 119.818 79.3602 119.569 83.3008C119.316 87.1561 118.805 90.9804 118.037 94.7736C117.187 98.6559 115.903 102.387 114.186 105.967C112.553 109.543 110.52 112.752 108.086 115.596C107.52 116.305 106.909 116.973 106.254 117.6C105.685 118.224 105.026 118.766 104.278 119.227C102.127 120.776 99.6524 121.785 96.8547 122.253C94.1422 122.717 91.5287 122.536 89.0142 121.71C87.5458 121.349 86.153 120.772 84.8358 119.977C83.5186 119.182 82.2402 118.3 81.0006 117.331C81.0775 119.036 81.1545 120.741 81.2315 122.446C81.3899 124.062 81.5502 125.72 81.7124 127.421C81.7278 127.762 81.7567 128.402 81.799 129.339C81.9305 130.358 82.0212 131.422 82.0712 132.53C82.2065 133.635 82.338 134.654 82.4655 135.588C82.597 136.607 82.713 137.285 82.8137 137.622C83.038 138.808 83.1772 139.997 83.2311 141.191C83.3741 142.466 83.3872 143.704 83.2706 144.905C83.2162 145.591 82.9021 146.203 82.3285 146.741C81.7587 147.365 81.1386 147.82 80.4682 148.106C79.7125 148.397 78.9085 148.561 78.056 148.6C77.2926 148.72 76.4866 148.841 75.638 148.965ZM86.8415 99.1291C88.3368 100.087 89.7239 100.537 91.0026 100.479C93.0485 100.386 94.8467 99.5365 96.397 97.9289C97.9436 96.2361 99.1764 94.2157 100.095 91.8679C101.096 89.431 101.705 86.8408 101.923 84.0976C102.222 81.2652 102.105 78.6652 101.571 76.2975C101.037 73.9298 100.096 72.0077 98.7476 70.531C97.3958 68.969 95.5264 68.2419 93.1395 68.3497C91.6051 68.419 90.0976 69.085 88.617 70.3477C87.1326 71.5252 85.7915 73.0379 84.5936 74.8858C83.481 76.7299 82.5504 78.822 81.8019 81.1622C81.1348 83.4132 80.8105 85.6915 80.8292 87.997C80.9293 90.2134 81.4091 92.3272 82.2687 94.3385C83.2097 96.2607 84.734 97.8576 86.8415 99.1291Z" fill="#A855E9"/>
<path d="M165.886 118.79C162.185 120.4 158.162 121.417 153.818 121.841C149.572 122.335 145.612 121.997 141.938 120.829C137.814 119.567 133.972 117.693 130.41 115.204C126.849 112.716 123.957 109.85 121.734 106.604C119.739 103.665 118.276 100.544 117.343 97.243C116.396 93.8578 115.701 90.4278 115.258 86.9532C114.665 82.6383 114.501 78.2908 114.764 73.9109C115.11 69.516 116.125 65.2194 117.807 61.0211C119.888 56.1451 122.964 51.7428 127.033 47.8141C129.478 45.4737 132.188 43.6496 135.162 42.3418C137.257 41.4501 139.397 40.8104 141.582 40.4228C143.835 39.9363 146.084 39.6672 148.328 39.6157C149.886 39.5995 151.465 39.7092 153.067 39.945C154.654 40.0968 156.11 40.4884 157.435 41.1199C160.422 42.3233 163.036 44.1128 165.278 46.4884C167.588 48.7651 169.242 51.245 170.238 53.9283C171.536 57.3379 171.982 61.0721 171.575 65.1309C171.238 69.0907 169.872 72.6264 167.477 75.7379C165.498 78.2558 162.909 80.2751 159.712 81.7956C157.341 83.0831 154.798 84.1408 152.085 84.9688C149.441 85.6979 146.768 86.259 144.064 86.652C142.888 86.8608 141.704 87.0275 140.513 87.1521C139.406 87.2619 138.276 87.2457 137.124 87.1034C137.561 88.5859 138.039 90.0611 138.559 91.5287C139.164 92.9815 140.047 94.298 141.21 95.4784C142.076 96.4514 143.053 97.318 144.141 98.0782C145.314 98.8236 146.575 99.3365 147.924 99.617C148.923 99.8731 149.942 99.9958 150.98 99.9849C152.003 99.8901 153.011 99.7112 154.004 99.4482C155.754 99.0512 157.424 98.4515 159.015 97.6492C160.606 96.8469 162.091 95.9335 163.469 94.909C164.067 94.3696 164.63 93.8797 165.158 93.4393C165.771 92.9839 166.433 92.5631 167.144 92.1769C168.108 91.746 169.039 91.624 169.939 91.811C170.572 91.9587 171.364 92.5116 172.314 93.4697C173.333 94.3289 174.013 94.9882 174.354 95.4476C175.22 96.4206 176.01 97.4505 176.723 98.5374C177.505 99.5253 178.126 100.585 178.587 101.717C179.236 103.421 179.317 105.097 178.829 106.744C178.341 108.39 177.453 109.978 176.164 111.506C174.875 113.035 173.304 114.44 171.452 115.722C169.668 116.906 167.813 117.928 165.886 118.79ZM135.858 72.6382C138.018 72.6016 140.225 72.34 142.478 71.8535C144.801 71.268 146.797 70.3072 148.467 68.971C149.233 68.4018 149.892 67.7215 150.445 66.93C151.067 66.0397 151.387 65.1595 151.406 64.2895C151.386 63.6864 151.267 63.0142 151.048 62.273C150.83 61.5317 150.528 60.8053 150.142 60.0938C149.756 59.3824 149.3 58.7698 148.776 58.2562C148.251 57.7426 147.673 57.412 147.04 57.2643C146.491 57.1016 145.888 57.122 145.231 57.3253C144.558 57.4445 143.943 57.6403 143.385 57.9127C142.268 58.4575 141.265 59.1555 140.376 60.0065C139.487 60.8576 138.781 61.7628 138.258 62.7223C137.419 64.3445 136.848 66.0059 136.543 67.7067C136.223 69.3234 135.995 70.9673 135.858 72.6382Z" fill="#A855E9"/>
<path d="M131.773 226.319C128.072 227.929 124.049 228.946 119.704 229.371C115.459 229.864 111.499 229.526 107.825 228.358C103.701 227.097 99.8584 225.222 96.297 222.734C92.7355 220.246 89.8435 217.379 87.621 214.133C85.6262 211.194 84.1625 208.074 83.2301 204.772C82.2828 201.387 81.5876 197.957 81.1444 194.482C80.5522 190.168 80.3875 185.82 80.6503 181.44C80.9972 177.045 82.0115 172.749 83.6933 168.55C85.7748 163.674 88.8503 159.272 92.9199 155.343C95.3646 153.003 98.0743 151.179 101.049 149.871C103.144 148.979 105.284 148.34 107.468 147.952C109.722 147.466 111.971 147.197 114.215 147.145C115.772 147.129 117.352 147.239 118.954 147.474C120.54 147.626 121.997 148.018 123.322 148.649C126.309 149.853 128.923 151.642 131.164 154.018C133.475 156.294 135.128 158.774 136.124 161.458C137.423 164.867 137.869 168.601 137.462 172.66C137.125 176.62 135.759 180.156 133.364 183.267C131.384 185.785 128.796 187.804 125.599 189.325C123.227 190.612 120.685 191.67 117.972 192.498C115.328 193.227 112.654 193.788 109.951 194.181C108.775 194.39 107.591 194.557 106.4 194.681C105.292 194.791 104.163 194.775 103.011 194.633C103.447 196.115 103.926 197.59 104.446 199.058C105.051 200.511 105.934 201.827 107.097 203.008C107.963 203.981 108.94 204.847 110.028 205.608C111.2 206.353 112.461 206.866 113.811 207.146C114.81 207.402 115.828 207.525 116.866 207.514C117.89 207.419 118.898 207.24 119.891 206.978C121.641 206.58 123.311 205.981 124.902 205.178C126.493 204.376 127.978 203.463 129.356 202.438C129.953 201.899 130.516 201.409 131.045 200.969C131.657 200.513 132.319 200.092 133.031 199.706C133.994 199.275 134.926 199.153 135.826 199.34C136.459 199.488 137.25 200.041 138.2 200.999C139.219 201.858 139.9 202.517 140.241 202.977C141.107 203.95 141.897 204.98 142.609 206.067C143.391 207.055 144.013 208.114 144.473 209.246C145.123 210.951 145.203 212.626 144.715 214.273C144.228 215.919 143.339 217.507 142.051 219.036C140.762 220.564 139.191 221.97 137.339 223.252C135.555 224.435 133.7 225.457 131.773 226.319ZM101.744 180.167C103.905 180.131 106.111 179.869 108.365 179.383C110.688 178.797 112.684 177.836 114.354 176.5C115.119 175.931 115.779 175.251 116.332 174.459C116.954 173.569 117.274 172.689 117.293 171.819C117.273 171.216 117.153 170.544 116.935 169.802C116.717 169.061 116.415 168.335 116.029 167.623C115.642 166.912 115.187 166.299 114.663 165.786C114.138 165.272 113.559 164.941 112.927 164.794C112.378 164.631 111.775 164.651 111.117 164.855C110.445 164.974 109.83 165.17 109.272 165.442C108.155 165.987 107.152 166.685 106.263 167.536C105.374 168.387 104.668 169.292 104.145 170.252C103.306 171.874 102.734 173.535 102.429 175.236C102.11 176.853 101.881 178.497 101.744 180.167Z" fill="#A855E9"/>
<path d="M154.76 228.356C153.935 228.589 153.102 228.781 152.262 228.93C151.506 229.064 150.754 228.98 150.008 228.68C149.261 228.379 148.653 227.88 148.182 227.183C147.796 226.472 147.41 225.761 147.024 225.049C145.434 221.951 144.207 218.702 143.344 215.302C142.481 211.902 141.652 208.452 140.858 204.953C140.153 201.958 139.54 198.99 139.018 196.05C138.566 193.01 138.029 189.985 137.408 186.975C136.609 182.957 135.799 178.638 134.979 174.016C134.144 169.311 133.495 164.92 133.031 160.842C132.952 159.903 132.83 158.971 132.666 158.047C132.571 157.024 132.525 156.035 132.529 155.081C132.548 154.211 132.575 153.383 132.609 152.597C132.712 151.712 132.955 150.889 133.34 150.127C133.671 149.549 134.269 149.009 135.133 148.509C136.724 147.707 138.516 147.302 140.508 147.296C142.485 147.205 144.306 146.968 145.972 146.586C147.301 146.264 148.683 146.235 150.117 146.501C151.551 146.766 152.555 147.542 153.129 148.826C153.803 150.18 154.266 151.571 154.52 153C154.773 154.428 154.985 155.864 155.154 157.307C155.368 159.002 155.54 160.705 155.67 162.415C155.885 164.111 156.057 165.813 156.187 167.524C157.429 164.27 159.046 161.166 161.035 158.213C163.009 155.177 165.31 152.515 167.938 150.229C168.926 149.447 170.124 148.628 171.532 147.771C173.024 146.9 174.581 146.147 176.201 145.513C177.822 144.878 179.438 144.462 181.049 144.262C182.661 144.063 184.03 144.21 185.158 144.703C186.171 145.044 186.894 145.695 187.325 146.659C187.741 147.538 188.023 148.398 188.172 149.239C188.321 150.079 188.436 150.968 188.516 151.908C188.576 152.244 188.611 152.931 188.622 153.969C188.702 154.908 188.754 155.939 188.78 157.061C188.875 158.084 188.928 159.114 188.939 160.153C189.034 161.176 189.111 161.855 189.171 162.191C189.374 162.849 189.367 163.543 189.15 164.275C188.918 164.923 188.538 165.467 188.01 165.907C187.343 166.546 186.352 167.068 185.038 167.475C181.371 168.299 178.263 169.587 175.714 171.339C173.15 173.007 170.996 175.036 169.254 177.425C167.496 179.73 166.127 182.27 165.145 185.044C164.164 187.818 163.416 190.681 162.899 193.632C162.245 196.782 162.067 199.933 162.367 203.087C162.735 206.141 163.364 209.193 164.251 212.242C164.326 212.663 164.48 213.285 164.713 214.111C164.931 214.852 165.164 215.677 165.412 216.587C165.66 217.496 165.859 218.371 166.008 219.211C166.241 220.036 166.345 220.624 166.321 220.975C166.272 221.677 166.006 222.374 165.522 223.067C165.122 223.745 164.608 224.269 163.981 224.64C161.249 226.338 158.175 227.577 154.76 228.356Z" fill="#A855E9"/>
<path d="M40.8772 245.283C40.4571 245.358 39.7504 245.526 38.7571 245.789C37.8477 246.037 36.847 246.258 35.7547 246.452C34.7464 246.631 33.7382 246.81 32.7299 246.989C31.8057 247.153 31.1606 247.18 30.7947 247.072C29.9098 246.969 29.1062 246.592 28.3838 245.94C27.9732 245.579 27.5944 244.91 27.2475 243.931C26.8857 242.869 26.5238 241.806 26.162 240.744C25.8692 239.583 25.584 238.463 25.3062 237.386C25.1124 236.294 24.9707 235.495 24.8813 234.991C23.4718 229.001 22.2304 222.982 21.1571 216.932C20.1677 210.868 19.3044 204.781 18.5672 198.672C18.4926 198.252 18.4255 197.874 18.3659 197.537C18.3063 197.201 18.2812 196.816 18.2907 196.381C18.1118 195.373 17.9329 194.364 17.754 193.356C17.6442 192.249 17.5419 191.184 17.447 190.161C17.4565 189.726 17.4314 189.34 17.3718 189.004C17.3122 188.668 17.2871 188.282 17.2966 187.847C16.6 182.944 15.9034 178.041 15.2068 173.138C14.5102 168.235 14.3251 163.285 14.6517 158.287C14.7154 157.669 14.8455 156.692 15.042 155.358C15.3076 153.924 15.6131 152.96 15.9587 152.465C16.5956 151.659 17.5368 151.102 18.7822 150.794C20.0967 150.387 21.4831 150.141 22.9413 150.056C24.4834 149.956 26.006 149.989 27.5089 150.156C28.9969 150.238 30.2674 150.316 31.3203 150.389C32.5563 150.517 33.7949 150.904 35.0363 151.55C35.7138 151.95 36.2038 152.513 36.506 153.239C36.8922 153.951 37.1104 154.692 37.1605 155.463C37.2053 155.715 37.1836 156.326 37.0955 157.295C37.0765 158.165 37.0305 159.126 36.9573 160.179C36.9682 161.217 36.9715 162.213 36.9675 163.167C36.9485 164.037 36.9194 164.606 36.8801 164.873C36.8435 168.086 36.891 171.284 37.0225 174.467C37.154 177.651 37.3769 180.861 37.6913 184.099C37.7659 184.519 37.8357 185.156 37.9007 186.012C37.9509 186.783 38.0309 187.722 38.1406 188.829C38.2504 189.936 38.3676 191.085 38.4923 192.276C38.617 193.468 38.7343 194.617 38.844 195.724L39.1571 197.489C39.7941 202.055 40.5002 206.523 41.2754 210.893C42.0506 215.262 42.9247 219.7 43.8978 224.207C43.9574 224.543 44.0692 225.173 44.2332 226.098C44.4812 227.007 44.6946 227.966 44.8735 228.974C45.1364 229.967 45.3919 230.919 45.6399 231.828C45.8879 232.737 46.0837 233.353 46.2274 233.674C46.6041 234.82 46.8894 235.94 47.0832 237.032C47.361 238.109 47.5203 239.251 47.561 240.457C47.5962 241.144 47.3719 241.834 46.8881 242.527C46.4734 243.12 45.9449 243.561 45.3026 243.848C44.5911 244.234 43.8573 244.494 43.1011 244.628C42.3598 244.847 41.6185 245.065 40.8772 245.283ZM76.6929 238.928C76.2728 239.003 75.566 239.172 74.5727 239.434C73.6634 239.682 72.6626 239.903 71.5703 240.097C70.562 240.276 69.5538 240.455 68.5455 240.634C67.6213 240.798 66.9762 240.826 66.6103 240.717C65.7254 240.614 64.9218 240.237 64.1995 239.585C63.7888 239.225 63.4101 238.555 63.0631 237.577C62.7013 236.514 62.3394 235.452 61.9776 234.389C61.6849 233.228 61.3996 232.108 61.1218 231.031C60.928 229.939 60.7863 229.141 60.6969 228.637C59.2875 222.647 58.0461 216.627 56.9727 210.577C55.9834 204.513 55.1201 198.426 54.3828 192.317C54.3082 191.897 54.2412 191.519 54.1815 191.183C54.1219 190.847 54.0968 190.461 54.1063 190.026C53.9274 189.018 53.7485 188.01 53.5696 187.001C53.4598 185.894 53.3575 184.829 53.2627 183.806C53.2721 183.371 53.2471 182.985 53.1874 182.649C53.1278 182.313 53.1027 181.928 53.1122 181.493C52.4156 176.59 51.719 171.686 51.0224 166.783C50.3258 161.88 50.1408 156.93 50.4673 151.932C50.531 151.314 50.6611 150.338 50.8576 149.003C51.1232 147.569 51.4288 146.605 51.7743 146.11C52.4113 145.304 53.3524 144.747 54.5978 144.439C55.9123 144.033 57.2987 143.787 58.7569 143.701C60.2991 143.601 61.8216 143.634 63.3245 143.801C64.8125 143.883 66.083 143.961 67.136 144.035C68.3719 144.162 69.6105 144.549 70.8519 145.195C71.5295 145.595 72.0194 146.158 72.3216 146.884C72.7078 147.596 72.926 148.337 72.9762 149.108C73.0209 149.36 72.9992 149.971 72.9111 150.94C72.8922 151.81 72.8461 152.771 72.7729 153.824C72.7838 154.862 72.7872 155.858 72.7831 156.813C72.7641 157.683 72.735 158.251 72.6957 158.518C72.6592 161.731 72.7066 164.929 72.8381 168.113C72.9696 171.296 73.1925 174.506 73.507 177.744C73.5815 178.164 73.6513 178.802 73.7164 179.657C73.7665 180.428 73.8465 181.367 73.9562 182.474C74.066 183.581 74.1833 184.731 74.3079 185.922C74.4326 187.113 74.5499 188.262 74.6596 189.369L74.9727 191.134C75.6097 195.701 76.3158 200.169 77.091 204.538C77.8662 208.907 78.7403 213.345 79.7134 217.852C79.773 218.189 79.8848 218.819 80.0488 219.743C80.2968 220.652 80.5102 221.611 80.6891 222.619C80.9521 223.613 81.2075 224.564 81.4555 225.473C81.7035 226.383 81.8994 226.998 82.043 227.319C82.4198 228.466 82.705 229.585 82.8988 230.677C83.1767 231.755 83.3359 232.896 83.3766 234.102C83.4118 234.79 83.1875 235.479 82.7037 236.172C82.2891 236.765 81.7605 237.206 81.1182 237.493C80.4067 237.879 79.6729 238.14 78.9167 238.274C78.1754 238.492 77.4341 238.71 76.6929 238.928Z" fill="#A855E9"/>
</svg>
